<mxfile host="Electron" agent="Mozilla/5.0 (Windows NT 10.0; Win64; x64) AppleWebKit/537.36 (KHTML, like Gecko) draw.io/26.0.4 Chrome/128.0.6613.186 Electron/32.2.5 Safari/537.36" version="26.0.4">
  <diagram name="Page-1" id="NnMXzKN-C8ozHN8au883">
    <mxGraphModel dx="555" dy="965" grid="1" gridSize="10" guides="1" tooltips="1" connect="1" arrows="1" fold="1" page="1" pageScale="1" pageWidth="850" pageHeight="1100" math="0" shadow="0">
      <root>
        <mxCell id="0" />
        <mxCell id="1" parent="0" />
        <mxCell id="-pjz0rkaRmibch_E9_K_-4" style="edgeStyle=orthogonalEdgeStyle;rounded=0;orthogonalLoop=1;jettySize=auto;html=1;exitX=1;exitY=0.5;exitDx=0;exitDy=0;exitPerimeter=0;endArrow=none;endFill=0;fontStyle=0" parent="1" source="-pjz0rkaRmibch_E9_K_-3" target="-pjz0rkaRmibch_E9_K_-1" edge="1">
          <mxGeometry relative="1" as="geometry">
            <mxPoint x="230.08000000000004" y="158.5000000000001" as="targetPoint" />
          </mxGeometry>
        </mxCell>
        <mxCell id="-pjz0rkaRmibch_E9_K_-14" style="edgeStyle=orthogonalEdgeStyle;rounded=0;orthogonalLoop=1;jettySize=auto;html=1;exitX=1;exitY=0.5;exitDx=0;exitDy=0;entryX=0;entryY=0.5;entryDx=0;entryDy=0;endArrow=none;endFill=0;fontStyle=0" parent="1" source="-pjz0rkaRmibch_E9_K_-1" target="-pjz0rkaRmibch_E9_K_-5" edge="1">
          <mxGeometry relative="1" as="geometry" />
        </mxCell>
        <mxCell id="-pjz0rkaRmibch_E9_K_-1" value="" style="rounded=0;whiteSpace=wrap;html=1;fontStyle=0" parent="1" vertex="1">
          <mxGeometry x="225" y="58" width="160" height="200" as="geometry" />
        </mxCell>
        <mxCell id="-pjz0rkaRmibch_E9_K_-2" value="CLEAN_INPUT" style="text;html=1;align=left;verticalAlign=bottom;whiteSpace=wrap;rounded=0;fontFamily=Lucida Console;fontStyle=0" parent="1" vertex="1">
          <mxGeometry x="225" y="40" width="160" height="20" as="geometry" />
        </mxCell>
        <mxCell id="-pjz0rkaRmibch_E9_K_-3" value="countEnRaw" style="html=1;shadow=0;dashed=0;align=center;verticalAlign=middle;shape=mxgraph.arrows2.arrow;dy=0;dx=10;notch=0;fontFamily=Lucida Console;fontStyle=0" parent="1" vertex="1">
          <mxGeometry x="40" y="145.5" width="100" height="25" as="geometry" />
        </mxCell>
        <mxCell id="-pjz0rkaRmibch_E9_K_-5" value="" style="rounded=0;whiteSpace=wrap;html=1;fontStyle=0" parent="1" vertex="1">
          <mxGeometry x="525" y="58" width="160" height="200" as="geometry" />
        </mxCell>
        <mxCell id="-pjz0rkaRmibch_E9_K_-6" value="MAKE_COUNT" style="text;html=1;align=left;verticalAlign=bottom;whiteSpace=wrap;rounded=0;fontFamily=Lucida Console;fontStyle=0" parent="1" vertex="1">
          <mxGeometry x="525" y="40" width="160" height="20" as="geometry" />
        </mxCell>
        <mxCell id="-pjz0rkaRmibch_E9_K_-7" value="" style="rounded=0;whiteSpace=wrap;html=1;fontStyle=0" parent="1" vertex="1">
          <mxGeometry x="845" y="98" width="160" height="122" as="geometry" />
        </mxCell>
        <mxCell id="-pjz0rkaRmibch_E9_K_-8" value="CALC_TENS" style="text;html=1;align=left;verticalAlign=bottom;whiteSpace=wrap;rounded=0;fontFamily=Lucida Console;fontStyle=0" parent="1" vertex="1">
          <mxGeometry x="845" y="80" width="160" height="20" as="geometry" />
        </mxCell>
        <mxCell id="-pjz0rkaRmibch_E9_K_-13" style="edgeStyle=orthogonalEdgeStyle;rounded=0;orthogonalLoop=1;jettySize=auto;html=1;exitX=0;exitY=0.5;exitDx=0;exitDy=0;entryX=1;entryY=1;entryDx=0;entryDy=0;endArrow=oval;endFill=1;strokeWidth=3;fontStyle=0" parent="1" source="-pjz0rkaRmibch_E9_K_-9" target="-pjz0rkaRmibch_E9_K_-12" edge="1">
          <mxGeometry relative="1" as="geometry" />
        </mxCell>
        <mxCell id="-pjz0rkaRmibch_E9_K_-9" value="" style="rounded=0;whiteSpace=wrap;html=1;fontStyle=0" parent="1" vertex="1">
          <mxGeometry x="845" y="260" width="160" height="120" as="geometry" />
        </mxCell>
        <mxCell id="-pjz0rkaRmibch_E9_K_-10" value="CALC_ONES" style="text;html=1;align=left;verticalAlign=bottom;whiteSpace=wrap;rounded=0;fontFamily=Lucida Console;fontStyle=0" parent="1" vertex="1">
          <mxGeometry x="845" y="240" width="160" height="20" as="geometry" />
        </mxCell>
        <mxCell id="-pjz0rkaRmibch_E9_K_-11" value="" style="endArrow=none;html=1;rounded=0;entryX=0;entryY=0.5;entryDx=0;entryDy=0;strokeWidth=3;fontStyle=0" parent="1" target="-pjz0rkaRmibch_E9_K_-7" edge="1">
          <mxGeometry width="50" height="50" relative="1" as="geometry">
            <mxPoint x="685" y="160" as="sourcePoint" />
            <mxPoint x="785" y="160" as="targetPoint" />
            <Array as="points">
              <mxPoint x="695" y="160" />
            </Array>
          </mxGeometry>
        </mxCell>
        <mxCell id="-pjz0rkaRmibch_E9_K_-12" value="count" style="text;html=1;align=left;verticalAlign=bottom;whiteSpace=wrap;rounded=0;fontFamily=Lucida Console;fontStyle=0" parent="1" vertex="1">
          <mxGeometry x="696" y="140" width="70" height="20" as="geometry" />
        </mxCell>
        <mxCell id="-pjz0rkaRmibch_E9_K_-15" value="" style="endArrow=none;html=1;rounded=0;strokeWidth=3;fontStyle=0" parent="1" edge="1">
          <mxGeometry width="50" height="50" relative="1" as="geometry">
            <mxPoint x="1005" y="161" as="sourcePoint" />
            <mxPoint x="1133" y="160" as="targetPoint" />
            <Array as="points">
              <mxPoint x="1015" y="161" />
            </Array>
          </mxGeometry>
        </mxCell>
        <mxCell id="-pjz0rkaRmibch_E9_K_-16" value="countTens" style="text;html=1;align=left;verticalAlign=bottom;whiteSpace=wrap;rounded=0;fontFamily=Lucida Console;fontStyle=0" parent="1" vertex="1">
          <mxGeometry x="1015" y="140" width="70" height="20" as="geometry" />
        </mxCell>
        <mxCell id="-pjz0rkaRmibch_E9_K_-23" value="" style="endArrow=none;html=1;rounded=0;strokeWidth=3;fontStyle=0" parent="1" edge="1">
          <mxGeometry width="50" height="50" relative="1" as="geometry">
            <mxPoint x="1138" y="160" as="sourcePoint" />
            <mxPoint x="1244" y="160.32000000000005" as="targetPoint" />
            <Array as="points">
              <mxPoint x="1154" y="160.32000000000005" />
            </Array>
          </mxGeometry>
        </mxCell>
        <mxCell id="-pjz0rkaRmibch_E9_K_-26" value="4" style="text;html=1;align=center;verticalAlign=bottom;whiteSpace=wrap;rounded=0;fontFamily=Lucida Console;fontStyle=0" parent="1" vertex="1">
          <mxGeometry x="1164" y="175.5" width="61" height="20" as="geometry" />
        </mxCell>
        <mxCell id="-pjz0rkaRmibch_E9_K_-27" value="" style="endArrow=none;html=1;rounded=0;strokeWidth=3;fontStyle=0" parent="1" edge="1">
          <mxGeometry width="50" height="50" relative="1" as="geometry">
            <mxPoint x="1005" y="321" as="sourcePoint" />
            <mxPoint x="1138" y="320" as="targetPoint" />
            <Array as="points">
              <mxPoint x="1015" y="321" />
            </Array>
          </mxGeometry>
        </mxCell>
        <mxCell id="-pjz0rkaRmibch_E9_K_-28" value="countOnes" style="text;html=1;align=left;verticalAlign=bottom;whiteSpace=wrap;rounded=0;fontFamily=Lucida Console;fontStyle=0" parent="1" vertex="1">
          <mxGeometry x="1015" y="300" width="70" height="20" as="geometry" />
        </mxCell>
        <mxCell id="-pjz0rkaRmibch_E9_K_-33" value="" style="endArrow=none;html=1;rounded=0;strokeWidth=3;fontStyle=0" parent="1" edge="1">
          <mxGeometry width="50" height="50" relative="1" as="geometry">
            <mxPoint x="1144" y="320.32000000000005" as="sourcePoint" />
            <mxPoint x="1244" y="320.32000000000005" as="targetPoint" />
            <Array as="points">
              <mxPoint x="1154" y="320.32000000000005" />
            </Array>
          </mxGeometry>
        </mxCell>
        <mxCell id="-pjz0rkaRmibch_E9_K_-35" value="4" style="text;html=1;align=center;verticalAlign=bottom;whiteSpace=wrap;rounded=0;fontFamily=Lucida Console;fontStyle=0" parent="1" vertex="1">
          <mxGeometry x="1164" y="340" width="61" height="20" as="geometry" />
        </mxCell>
        <mxCell id="-pjz0rkaRmibch_E9_K_-36" value="" style="endArrow=none;html=1;rounded=0;strokeWidth=3;fontStyle=0" parent="1" edge="1">
          <mxGeometry width="50" height="50" relative="1" as="geometry">
            <mxPoint x="1243" y="160" as="sourcePoint" />
            <mxPoint x="1263" y="142" as="targetPoint" />
          </mxGeometry>
        </mxCell>
        <mxCell id="-pjz0rkaRmibch_E9_K_-37" value="" style="endArrow=none;html=1;rounded=0;strokeWidth=3;fontStyle=0" parent="1" edge="1">
          <mxGeometry width="50" height="50" relative="1" as="geometry">
            <mxPoint x="1243" y="321" as="sourcePoint" />
            <mxPoint x="1263" y="303" as="targetPoint" />
          </mxGeometry>
        </mxCell>
        <mxCell id="-pjz0rkaRmibch_E9_K_-38" value="" style="endArrow=none;html=1;rounded=0;strokeWidth=3;fontStyle=0" parent="1" edge="1">
          <mxGeometry width="50" height="50" relative="1" as="geometry">
            <mxPoint x="1264" y="335" as="sourcePoint" />
            <mxPoint x="1264" y="60" as="targetPoint" />
          </mxGeometry>
        </mxCell>
        <mxCell id="-pjz0rkaRmibch_E9_K_-39" value="" style="endArrow=none;html=1;rounded=0;strokeWidth=3;fontStyle=0" parent="1" edge="1">
          <mxGeometry width="50" height="50" relative="1" as="geometry">
            <mxPoint x="1263" y="59.82000000000005" as="sourcePoint" />
            <mxPoint x="1405" y="60" as="targetPoint" />
            <Array as="points">
              <mxPoint x="1273" y="59.82000000000005" />
            </Array>
          </mxGeometry>
        </mxCell>
        <mxCell id="-pjz0rkaRmibch_E9_K_-41" value="8" style="text;html=1;align=center;verticalAlign=bottom;whiteSpace=wrap;rounded=0;fontFamily=Lucida Console;fontStyle=0" parent="1" vertex="1">
          <mxGeometry x="1308" y="75.5" width="61" height="20" as="geometry" />
        </mxCell>
        <mxCell id="-pjz0rkaRmibch_E9_K_-43" value="digits" style="html=1;shadow=0;dashed=0;align=center;verticalAlign=middle;shape=mxgraph.arrows2.arrow;dy=0;dx=10;notch=0;fontFamily=Lucida Console;fontStyle=0" parent="1" vertex="1">
          <mxGeometry x="1405" y="46" width="100" height="25" as="geometry" />
        </mxCell>
        <mxCell id="-pjz0rkaRmibch_E9_K_-44" value="7:4" style="text;html=1;align=center;verticalAlign=bottom;whiteSpace=wrap;rounded=0;fontFamily=Lucida Console;fontStyle=0" parent="1" vertex="1">
          <mxGeometry x="1202" y="137.5" width="61" height="20" as="geometry" />
        </mxCell>
        <mxCell id="-pjz0rkaRmibch_E9_K_-46" value="3:0" style="text;html=1;align=center;verticalAlign=bottom;whiteSpace=wrap;rounded=0;fontFamily=Lucida Console;fontStyle=0" parent="1" vertex="1">
          <mxGeometry x="1202" y="297" width="61" height="20" as="geometry" />
        </mxCell>
        <mxCell id="-pjz0rkaRmibch_E9_K_-47" value="&lt;span style=&quot;&quot;&gt;countEn&lt;/span&gt;" style="text;html=1;align=left;verticalAlign=bottom;whiteSpace=wrap;rounded=0;fontFamily=Lucida Console;fontStyle=0" parent="1" vertex="1">
          <mxGeometry x="395" y="137.5" width="70" height="20" as="geometry" />
        </mxCell>
        <mxCell id="J_qNCnFpd20M9ctgEOp4-4" value="" style="endArrow=none;html=1;rounded=0;strokeWidth=1;fontStyle=0" parent="1" edge="1">
          <mxGeometry width="50" height="50" relative="1" as="geometry">
            <mxPoint x="1190" y="170.5" as="sourcePoint" />
            <mxPoint x="1199" y="148.5" as="targetPoint" />
          </mxGeometry>
        </mxCell>
        <mxCell id="J_qNCnFpd20M9ctgEOp4-6" value="" style="endArrow=none;html=1;rounded=0;strokeWidth=1;fontStyle=0" parent="1" edge="1">
          <mxGeometry width="50" height="50" relative="1" as="geometry">
            <mxPoint x="1190" y="331" as="sourcePoint" />
            <mxPoint x="1199" y="309" as="targetPoint" />
          </mxGeometry>
        </mxCell>
        <mxCell id="J_qNCnFpd20M9ctgEOp4-9" value="" style="endArrow=none;html=1;rounded=0;strokeWidth=1;fontStyle=0" parent="1" edge="1">
          <mxGeometry width="50" height="50" relative="1" as="geometry">
            <mxPoint x="1334" y="70" as="sourcePoint" />
            <mxPoint x="1343" y="48" as="targetPoint" />
          </mxGeometry>
        </mxCell>
        <mxCell id="J_qNCnFpd20M9ctgEOp4-14" value="" style="group;fontStyle=0" parent="1" vertex="1" connectable="0">
          <mxGeometry x="1129" y="153" width="10" height="14" as="geometry" />
        </mxCell>
        <mxCell id="-pjz0rkaRmibch_E9_K_-19" value="" style="endArrow=none;html=1;rounded=0;strokeWidth=1;fontStyle=0" parent="J_qNCnFpd20M9ctgEOp4-14" edge="1">
          <mxGeometry width="50" height="50" relative="1" as="geometry">
            <mxPoint y="14" as="sourcePoint" />
            <mxPoint x="5" y="7" as="targetPoint" />
          </mxGeometry>
        </mxCell>
        <mxCell id="-pjz0rkaRmibch_E9_K_-20" value="" style="endArrow=none;html=1;rounded=0;strokeWidth=1;fontStyle=0" parent="J_qNCnFpd20M9ctgEOp4-14" edge="1">
          <mxGeometry width="50" height="50" relative="1" as="geometry">
            <mxPoint as="sourcePoint" />
            <mxPoint x="5" y="7" as="targetPoint" />
          </mxGeometry>
        </mxCell>
        <mxCell id="J_qNCnFpd20M9ctgEOp4-12" value="" style="endArrow=none;html=1;rounded=0;strokeWidth=1;fontStyle=0" parent="J_qNCnFpd20M9ctgEOp4-14" edge="1">
          <mxGeometry width="50" height="50" relative="1" as="geometry">
            <mxPoint x="5" y="14" as="sourcePoint" />
            <mxPoint x="10" y="7" as="targetPoint" />
          </mxGeometry>
        </mxCell>
        <mxCell id="J_qNCnFpd20M9ctgEOp4-13" value="" style="endArrow=none;html=1;rounded=0;strokeWidth=1;fontStyle=0" parent="J_qNCnFpd20M9ctgEOp4-14" edge="1">
          <mxGeometry width="50" height="50" relative="1" as="geometry">
            <mxPoint x="5" as="sourcePoint" />
            <mxPoint x="10" y="7" as="targetPoint" />
          </mxGeometry>
        </mxCell>
        <mxCell id="J_qNCnFpd20M9ctgEOp4-15" value="" style="group;fontStyle=0" parent="1" vertex="1" connectable="0">
          <mxGeometry x="1134" y="313" width="10" height="14" as="geometry" />
        </mxCell>
        <mxCell id="J_qNCnFpd20M9ctgEOp4-16" value="" style="endArrow=none;html=1;rounded=0;strokeWidth=1;fontStyle=0" parent="J_qNCnFpd20M9ctgEOp4-15" edge="1">
          <mxGeometry width="50" height="50" relative="1" as="geometry">
            <mxPoint y="14" as="sourcePoint" />
            <mxPoint x="5" y="7" as="targetPoint" />
          </mxGeometry>
        </mxCell>
        <mxCell id="J_qNCnFpd20M9ctgEOp4-17" value="" style="endArrow=none;html=1;rounded=0;strokeWidth=1;fontStyle=0" parent="J_qNCnFpd20M9ctgEOp4-15" edge="1">
          <mxGeometry width="50" height="50" relative="1" as="geometry">
            <mxPoint as="sourcePoint" />
            <mxPoint x="5" y="7" as="targetPoint" />
          </mxGeometry>
        </mxCell>
        <mxCell id="J_qNCnFpd20M9ctgEOp4-18" value="" style="endArrow=none;html=1;rounded=0;strokeWidth=1;fontStyle=0" parent="J_qNCnFpd20M9ctgEOp4-15" edge="1">
          <mxGeometry width="50" height="50" relative="1" as="geometry">
            <mxPoint x="5" y="14" as="sourcePoint" />
            <mxPoint x="10" y="7" as="targetPoint" />
          </mxGeometry>
        </mxCell>
        <mxCell id="J_qNCnFpd20M9ctgEOp4-19" value="" style="endArrow=none;html=1;rounded=0;strokeWidth=1;fontStyle=0" parent="J_qNCnFpd20M9ctgEOp4-15" edge="1">
          <mxGeometry width="50" height="50" relative="1" as="geometry">
            <mxPoint x="5" as="sourcePoint" />
            <mxPoint x="10" y="7" as="targetPoint" />
          </mxGeometry>
        </mxCell>
        <mxCell id="EFJQyNqaosxOXWlHlTui-3" style="edgeStyle=orthogonalEdgeStyle;rounded=0;orthogonalLoop=1;jettySize=auto;html=1;exitX=0;exitY=0.5;exitDx=0;exitDy=0;startArrow=none;startFill=0;strokeWidth=3;endArrow=oval;endFill=1;fontStyle=0" parent="1" source="EFJQyNqaosxOXWlHlTui-1" edge="1">
          <mxGeometry relative="1" as="geometry">
            <mxPoint x="766.6216216216216" y="320.78378378378375" as="targetPoint" />
          </mxGeometry>
        </mxCell>
        <mxCell id="EFJQyNqaosxOXWlHlTui-1" value="" style="rounded=0;whiteSpace=wrap;html=1;fontStyle=0" parent="1" vertex="1">
          <mxGeometry x="845" y="418" width="160" height="200" as="geometry" />
        </mxCell>
        <mxCell id="EFJQyNqaosxOXWlHlTui-2" value="MAKE_COUNT" style="text;html=1;align=left;verticalAlign=bottom;whiteSpace=wrap;rounded=0;fontFamily=Lucida Console;fontStyle=0" parent="1" vertex="1">
          <mxGeometry x="845" y="400" width="160" height="20" as="geometry" />
        </mxCell>
        <mxCell id="EFJQyNqaosxOXWlHlTui-4" value="" style="endArrow=none;html=1;rounded=0;strokeWidth=3;fontStyle=0" parent="1" edge="1">
          <mxGeometry width="50" height="50" relative="1" as="geometry">
            <mxPoint x="1005" y="518.32" as="sourcePoint" />
            <mxPoint x="1120" y="518" as="targetPoint" />
            <Array as="points">
              <mxPoint x="1015" y="518.32" />
            </Array>
          </mxGeometry>
        </mxCell>
        <mxCell id="EFJQyNqaosxOXWlHlTui-5" value="" style="endArrow=none;html=1;rounded=0;strokeWidth=1;fontStyle=0" parent="1" edge="1">
          <mxGeometry width="50" height="50" relative="1" as="geometry">
            <mxPoint x="1051" y="529" as="sourcePoint" />
            <mxPoint x="1060" y="507" as="targetPoint" />
          </mxGeometry>
        </mxCell>
        <mxCell id="EFJQyNqaosxOXWlHlTui-6" value="16" style="text;html=1;align=center;verticalAlign=bottom;whiteSpace=wrap;rounded=0;fontFamily=Lucida Console;fontStyle=0" parent="1" vertex="1">
          <mxGeometry x="1024" y="531" width="61" height="20" as="geometry" />
        </mxCell>
        <mxCell id="EFJQyNqaosxOXWlHlTui-7" value="mask" style="text;html=1;align=center;verticalAlign=bottom;whiteSpace=wrap;rounded=0;fontFamily=Lucida Console;fontStyle=0" parent="1" vertex="1">
          <mxGeometry x="1024" y="488" width="70" height="20" as="geometry" />
        </mxCell>
        <mxCell id="EFJQyNqaosxOXWlHlTui-9" value="mask" style="html=1;shadow=0;dashed=0;align=center;verticalAlign=middle;shape=mxgraph.arrows2.arrow;dy=0;dx=10;notch=0;fontFamily=Lucida Console;fontStyle=0" parent="1" vertex="1">
          <mxGeometry x="1120" y="506" width="100" height="25" as="geometry" />
        </mxCell>
      </root>
    </mxGraphModel>
  </diagram>
</mxfile>
